<svg width="100" height="20" viewBox="0 0 215.834 79.693" xmlns="http://www.w3.org/2000/svg"><g id="svgGroup" stroke-linecap="round" fill-rule="evenodd" font-size="9pt" stroke="#a3b6d66b" stroke-width="0.25mm" fill="#22c35e" style="stroke:#a3b6d66b;stroke-width:0.25mm;fill:#22c35e"><path d="M 108.105 44.488 L 109.57 44.488 A 5102.943 5102.943 0 0 0 109.961 36.138 A 846.73 846.73 0 0 0 110.303 27.837 Q 110.449 23.785 110.547 20.122 A 1388.277 1388.277 0 0 1 110.645 16.619 A 1044.266 1044.266 0 0 1 110.742 13.433 A 18.549 18.549 0 0 0 106.213 17.748 A 21.448 21.448 0 0 0 105.664 18.511 A 18.22 18.22 0 0 0 103.108 24.112 A 21.752 21.752 0 0 0 102.734 25.738 A 3.448 3.448 0 0 1 100.6 24.533 A 4.327 4.327 0 0 1 100.586 24.517 A 12.83 12.83 0 0 1 99.516 23.084 A 11.1 11.1 0 0 1 99.121 22.417 A 15.057 15.057 0 0 1 98.308 20.625 A 18.267 18.267 0 0 1 97.949 19.585 A 7.31 7.31 0 0 1 97.705 17.718 A 7.594 7.594 0 0 1 97.949 15.826 A 14.519 14.519 0 0 1 99.414 12.212 A 15.544 15.544 0 0 1 101.194 9.693 A 14.082 14.082 0 0 1 101.66 9.185 A 18.781 18.781 0 0 1 102.752 8.134 Q 103.442 7.525 104.102 7.085 A 41.017 41.017 0 0 1 108.35 4.79 Q 110.547 3.765 113.281 3.081 Q 114.355 2.007 115.674 1.128 A 8.56 8.56 0 0 1 116.681 0.546 Q 117.45 0.173 118.164 0.054 Q 119.785 -0.327 120.01 1.992 A 6.845 6.845 0 0 1 120.02 2.105 A 29.445 29.445 0 0 1 121.333 1.99 A 34.207 34.207 0 0 1 121.875 1.958 Q 122.852 1.91 123.926 1.91 A 25.954 25.954 0 0 1 129.167 2.463 A 31.239 31.239 0 0 1 131.641 3.081 A 22.292 22.292 0 0 1 139.014 6.841 Q 142.383 9.429 144.531 13.579 A 18.324 18.324 0 0 1 146.192 18.419 Q 146.68 20.848 146.68 23.687 A 24.942 24.942 0 0 1 143.506 36.089 A 25.95 25.95 0 0 1 135.239 44.963 A 30.633 30.633 0 0 1 134.473 45.464 Q 135.122 47.135 136.124 49.598 A 525.984 525.984 0 0 0 136.23 49.859 A 73.942 73.942 0 0 1 137.305 52.666 A 100.299 100.299 0 0 1 138.379 55.816 A 82.643 82.643 0 0 0 140.853 61.652 A 71.812 71.812 0 0 0 141.748 63.482 A 50.241 50.241 0 0 0 143.591 66.814 A 37.356 37.356 0 0 0 145.508 69.683 A 24.029 24.029 0 0 0 147.446 71.997 A 17.725 17.725 0 0 0 149.609 73.931 A 11.43 11.43 0 0 0 151.422 75.056 Q 152.625 75.647 153.829 75.824 A 7.213 7.213 0 0 0 153.906 75.835 Q 152.756 77.605 151.285 78.413 A 5.56 5.56 0 0 1 150.977 78.57 A 11.209 11.209 0 0 1 148.694 79.367 A 9.839 9.839 0 0 1 147.656 79.546 A 12.193 12.193 0 0 1 145.752 79.693 Q 144.775 79.693 143.75 79.546 A 9.191 9.191 0 0 1 138.867 76.812 A 19.76 19.76 0 0 1 136.354 73.528 A 24.28 24.28 0 0 1 135.303 71.636 A 54.661 54.661 0 0 1 133.197 66.848 A 61.951 61.951 0 0 1 132.568 65.142 A 208.356 208.356 0 0 1 131.138 60.942 A 175.021 175.021 0 0 1 130.371 58.55 A 106.471 106.471 0 0 0 129.466 55.862 Q 128.96 54.424 128.467 53.179 A 437.177 437.177 0 0 0 127.805 51.517 Q 127.283 50.213 126.855 49.175 A 37.656 37.656 0 0 1 121.296 50.552 A 45.175 45.175 0 0 1 118.555 50.933 A 224.408 224.408 0 0 0 118.596 55.36 Q 118.665 58.831 118.848 61.578 A 160.102 160.102 0 0 0 118.928 63.512 Q 118.964 64.269 119.005 64.945 A 78.904 78.904 0 0 0 119.092 66.216 A 150.501 150.501 0 0 0 119.202 67.569 Q 119.247 68.101 119.293 68.581 A 78.801 78.801 0 0 0 119.385 69.488 Q 119.531 70.855 119.727 71.978 A 12.87 12.87 0 0 0 120.312 74.175 A 18.953 18.953 0 0 1 118.632 75.307 Q 117.569 75.939 116.553 76.324 A 30.176 30.176 0 0 1 115.26 76.781 Q 114.233 77.117 113.379 77.3 A 10.45 10.45 0 0 1 112.347 77.491 Q 111.309 77.628 110.449 77.496 A 32.747 32.747 0 0 1 109.695 75.084 A 36.616 36.616 0 0 1 109.57 74.615 Q 109.198 73.17 109.047 70.747 A 42.915 42.915 0 0 1 109.033 70.513 A 72.237 72.237 0 0 1 108.969 69.131 Q 108.892 67.071 108.887 64.317 A 213.002 213.002 0 0 1 108.887 63.921 Q 108.887 60.34 109.121 54.961 A 394.149 394.149 0 0 1 109.18 53.667 Q 109.277 52.984 109.277 52.3 Q 109.277 51.617 109.375 50.933 A 314.517 314.517 0 0 0 107.57 50.738 L 107.568 50.738 A 314.567 314.567 0 0 1 105.763 50.543 L 105.762 50.542 Q 105.285 49.27 105.066 48.224 A 10.075 10.075 0 0 1 104.98 47.759 Q 104.853 46.96 104.808 46.349 A 8.257 8.257 0 0 1 104.785 45.757 A 8.054 8.054 0 0 1 104.804 45.185 Q 104.846 44.598 104.98 44.195 Q 106.543 44.488 108.105 44.488 Z M 18.848 20.562 L 24.512 5.425 A 0.797 0.797 0 0 1 24.718 5.121 Q 25.097 4.746 26.105 4.333 A 13.781 13.781 0 0 1 26.562 4.156 Q 28.418 3.472 30.664 3.033 A 23.642 23.642 0 0 1 33.594 2.64 A 20.092 20.092 0 0 1 34.961 2.593 A 7.404 7.404 0 0 1 35.835 2.641 Q 37.148 2.797 37.598 3.472 A 98.733 98.733 0 0 0 37.759 4.558 Q 38.025 6.28 38.428 8.55 A 1241.447 1241.447 0 0 1 39.33 13.699 A 1119.607 1119.607 0 0 1 39.453 14.41 Q 40.039 17.73 40.82 21.246 A 1250.72 1250.72 0 0 1 41.736 26.397 A 1680.98 1680.98 0 0 1 42.725 32.085 A 209.911 209.911 0 0 0 44.216 39.837 A 256.638 256.638 0 0 0 45.313 44.781 A 229.208 229.208 0 0 0 47.986 55.163 A 260.668 260.668 0 0 0 49.023 58.746 A 127.633 127.633 0 0 0 53.594 71.513 A 142.238 142.238 0 0 0 54.395 73.394 A 7.991 7.991 0 0 1 53.274 74.667 A 6.495 6.495 0 0 1 52.148 75.494 A 11.099 11.099 0 0 1 50.905 76.116 A 8.279 8.279 0 0 1 49.707 76.519 Q 48.34 76.91 46.777 76.812 A 2.713 2.713 0 0 1 46.167 76.739 Q 45.889 76.675 45.593 76.554 A 4.67 4.67 0 0 1 45.508 76.519 Q 44.922 76.324 44.238 75.982 A 3.096 3.096 0 0 1 43.256 75.201 A 3.744 3.744 0 0 1 43.066 74.956 A 233.464 233.464 0 0 1 41.18 67.797 A 209.153 209.153 0 0 1 40.625 65.484 Q 39.622 61.199 38.875 57.765 A 351.136 351.136 0 0 1 38.77 57.281 A 188.608 188.608 0 0 1 37.663 52.222 A 154.264 154.264 0 0 1 37.109 49.371 Q 34.473 49.273 29.248 49.322 A 118.641 118.641 0 0 0 22.751 49.569 A 148.902 148.902 0 0 0 17.969 49.956 Q 16.113 55.816 15.039 59.82 A 141.647 141.647 0 0 0 14.539 61.736 Q 13.843 64.483 13.477 66.46 Q 12.998 69.042 13.082 70.734 A 9.335 9.335 0 0 0 13.086 70.806 A 11.974 11.974 0 0 0 13.255 72.265 Q 13.391 73.013 13.623 73.653 A 7.194 7.194 0 0 0 13.672 73.785 A 12.984 12.984 0 0 1 12.569 74.775 Q 11.769 75.41 10.986 75.787 Q 9.888 76.315 8.959 76.539 A 6.602 6.602 0 0 1 8.594 76.617 A 8.482 8.482 0 0 1 7.196 76.823 Q 6.969 76.836 6.744 76.836 A 7.126 7.126 0 0 1 6.152 76.812 A 18.804 18.804 0 0 1 5.147 76.66 Q 4.254 76.499 3.613 76.275 A 3.206 3.206 0 0 1 2.932 75.948 A 2.283 2.283 0 0 1 2.197 75.201 A 2.112 2.112 0 0 1 1.966 74.629 Q 1.808 74.004 1.904 73.101 A 14.843 14.843 0 0 1 2.039 72.161 Q 2.234 71.032 2.637 69.488 Q 3.119 67.881 4.294 64.195 A 1242.053 1242.053 0 0 1 4.834 62.505 Q 6.219 58.183 7.928 52.815 A 8257.619 8257.619 0 0 0 8.496 51.031 A 29.608 29.608 0 0 1 7.421 51.097 Q 5.163 51.192 3.635 50.871 A 7.273 7.273 0 0 1 2.783 50.64 Q 1.154 50.084 0.333 47.975 A 9.274 9.274 0 0 1 0 46.929 Q 1.563 46.441 3.369 46.001 A 490.414 490.414 0 0 1 5.997 45.37 A 430.471 430.471 0 0 1 6.836 45.171 A 66.04 66.04 0 0 1 10.645 44.488 A 580.342 580.342 0 0 1 14.844 31.792 A 554.894 554.894 0 0 1 16.888 25.948 Q 17.905 23.091 18.848 20.562 Z M 84.733 2.463 A 25.954 25.954 0 0 0 79.492 1.91 Q 78.418 1.91 77.441 1.958 A 34.207 34.207 0 0 0 76.9 1.99 A 29.445 29.445 0 0 0 75.586 2.105 Q 75.391 -0.337 73.828 0.054 Q 73.114 0.164 72.384 0.49 A 7.83 7.83 0 0 0 71.24 1.128 Q 69.922 2.007 68.848 3.081 A 29.956 29.956 0 0 0 66.567 3.745 A 23.215 23.215 0 0 0 63.965 4.79 A 55.115 55.115 0 0 0 59.668 7.085 Q 59.009 7.525 58.319 8.134 A 18.781 18.781 0 0 0 57.227 9.185 A 14.082 14.082 0 0 0 56.761 9.693 A 15.544 15.544 0 0 0 54.98 12.212 A 13.252 13.252 0 0 0 53.564 15.826 A 7.953 7.953 0 0 0 53.356 17.619 A 7.698 7.698 0 0 0 53.613 19.585 A 18.267 18.267 0 0 0 53.972 20.625 A 15.057 15.057 0 0 0 54.785 22.417 A 11.1 11.1 0 0 0 55.18 23.084 A 12.83 12.83 0 0 0 56.25 24.517 A 4.327 4.327 0 0 0 56.264 24.533 A 3.448 3.448 0 0 0 58.398 25.738 A 20.115 20.115 0 0 1 58.649 24.48 A 16.951 16.951 0 0 1 61.279 18.511 A 22.204 22.204 0 0 1 61.984 17.563 A 19.076 19.076 0 0 1 66.406 13.433 A 1086.384 1086.384 0 0 1 66.378 14.385 Q 66.334 15.841 66.281 17.462 A 1852.765 1852.765 0 0 1 66.162 21.001 A 3160.996 3160.996 0 0 0 66.089 23.147 A 3552.84 3552.84 0 0 0 65.869 29.839 Q 65.723 34.429 65.479 39.263 Q 65.234 44.097 65.039 48.589 A 10.44 10.44 0 0 1 64.468 48.573 A 12.912 12.912 0 0 1 63.574 48.492 A 20.723 20.723 0 0 1 63.048 48.485 A 25.419 25.419 0 0 1 62.109 48.443 A 25.336 25.336 0 0 1 60.547 48.296 Q 60.413 48.699 60.371 49.287 A 8.054 8.054 0 0 0 60.352 49.859 A 7.925 7.925 0 0 0 60.373 50.414 Q 60.416 51.025 60.547 51.812 A 7.776 7.776 0 0 0 60.668 52.395 Q 60.789 52.883 60.982 53.429 A 16.589 16.589 0 0 0 61.426 54.546 A 8.049 8.049 0 0 0 61.823 54.635 A 9.164 9.164 0 0 0 63.086 54.79 A 27.191 27.191 0 0 1 63.626 54.826 A 23.021 23.021 0 0 1 64.746 54.937 A 518.242 518.242 0 0 0 64.707 56.15 Q 64.551 61.193 64.551 64.556 Q 64.551 67.376 64.633 69.454 A 64.456 64.456 0 0 0 64.697 70.757 Q 64.844 73.199 65.234 74.712 Q 65.625 76.226 66.113 77.496 Q 67.48 77.691 69.043 77.3 Q 69.855 77.126 70.804 76.815 A 27.041 27.041 0 0 0 72.168 76.324 Q 73.926 75.64 75.879 74.175 A 23.928 23.928 0 0 1 75.391 71.978 Q 75.195 70.855 75.049 69.488 A 78.801 78.801 0 0 1 74.957 68.581 Q 74.911 68.101 74.866 67.569 A 150.501 150.501 0 0 1 74.756 66.216 A 78.904 78.904 0 0 1 74.669 64.945 Q 74.628 64.269 74.592 63.512 A 160.102 160.102 0 0 1 74.512 61.578 Q 74.329 59.746 74.26 57.496 A 93.71 93.71 0 0 1 74.219 54.644 A 39.044 39.044 0 0 0 75.787 54.346 A 33.875 33.875 0 0 0 85.742 50.591 A 38.678 38.678 0 0 0 86.739 49.998 A 33.926 33.926 0 0 0 94.58 43.413 A 31.741 31.741 0 0 0 100.244 34.136 A 28.252 28.252 0 0 0 102.246 23.687 Q 102.246 20.848 101.758 18.419 A 18.324 18.324 0 0 0 100.098 13.579 Q 97.949 9.429 94.58 6.841 A 22.292 22.292 0 0 0 87.207 3.081 A 31.239 31.239 0 0 0 84.733 2.463 Z M 177.246 9.038 L 177.246 10.601 Q 177.246 11.072 177.12 11.417 A 1.551 1.551 0 0 1 177.051 11.578 A 2.236 2.236 0 0 1 176.597 12.301 A 2.05 2.05 0 0 1 175.684 12.847 A 12.852 12.852 0 0 0 174.601 12.605 Q 174.033 12.501 173.391 12.429 A 21.872 21.872 0 0 0 173.193 12.408 A 72.253 72.253 0 0 1 170.41 12.066 A 49.289 49.289 0 0 0 167.239 11.776 A 53.164 53.164 0 0 0 167.188 11.773 A 143.402 143.402 0 0 1 167.282 13.674 Q 167.377 15.833 167.458 18.81 A 601.182 601.182 0 0 1 167.529 21.685 A 236.288 236.288 0 0 1 167.576 24.654 Q 167.628 29.848 167.51 37.057 A 796.248 796.248 0 0 1 167.48 38.726 A 8679.032 8679.032 0 0 1 167.386 43.85 Q 167.249 51.165 167.139 56.255 A 4403.506 4403.506 0 0 1 167.068 59.457 Q 166.968 63.97 166.895 66.753 A 28.51 28.51 0 0 1 168.831 66.968 Q 170.69 67.244 171.896 67.738 A 6.602 6.602 0 0 1 172.412 67.974 A 8.393 8.393 0 0 1 173.427 68.582 Q 174.417 69.283 174.854 70.122 A 4.58 4.58 0 0 1 175.369 72.267 A 5.433 5.433 0 0 1 175.342 72.808 A 103.046 103.046 0 0 0 175.15 74.95 A 92.521 92.521 0 0 0 175.098 75.64 A 20.226 20.226 0 0 0 173.328 75.31 Q 172.395 75.177 171.354 75.104 A 33.221 33.221 0 0 0 171.338 75.103 Q 169.238 74.956 167.383 74.956 A 50.728 50.728 0 0 0 162.988 75.152 A 56.426 56.426 0 0 0 158.704 75.642 A 50.894 50.894 0 0 0 158.105 75.738 A 42.803 42.803 0 0 0 154.199 76.714 A 9.089 9.089 0 0 0 152.972 77.175 Q 152.342 77.468 151.86 77.836 A 4.411 4.411 0 0 0 151.27 78.374 Q 150.488 76.91 150.098 75.249 A 15.17 15.17 0 0 1 149.793 73.96 Q 149.664 73.293 149.571 72.539 A 26.91 26.91 0 0 1 149.512 72.027 A 14.319 14.319 0 0 1 149.434 70.527 A 15.548 15.548 0 0 1 149.609 68.218 A 12.859 12.859 0 0 1 150.833 67.844 A 17.232 17.232 0 0 1 152.051 67.583 A 251.415 251.415 0 0 1 153.369 67.351 A 198.972 198.972 0 0 1 154.59 67.144 A 37.386 37.386 0 0 1 157.057 66.877 A 41.002 41.002 0 0 1 157.422 66.851 Q 157.571 64.458 157.778 60.606 A 1670.839 1670.839 0 0 0 157.91 58.111 A 270.558 270.558 0 0 0 158.051 55.062 Q 158.189 51.669 158.302 47.251 A 874.777 874.777 0 0 0 158.398 43.023 A 503.282 503.282 0 0 0 158.447 39.175 Q 158.529 29.864 158.203 23.638 A 454.621 454.621 0 0 0 158.008 20.144 Q 157.718 15.322 157.429 12.619 A 64.655 64.655 0 0 0 157.422 12.554 Q 156.055 12.847 154.785 13.238 A 81.411 81.411 0 0 1 153.65 13.641 A 109.076 109.076 0 0 1 152.393 14.068 A 19.087 19.087 0 0 0 150.049 15.02 A 17.554 17.554 0 0 0 149.902 15.093 Q 149.512 13.628 149.17 11.871 Q 148.952 10.752 148.952 9.693 A 9.891 9.891 0 0 1 149.023 8.501 A 5.862 5.862 0 0 1 149.705 6.345 A 5.593 5.593 0 0 1 150.146 5.669 A 3.132 3.132 0 0 1 151.351 4.729 Q 151.844 4.501 152.467 4.374 A 7.592 7.592 0 0 1 153.32 4.253 Q 155.469 3.96 158.301 3.863 A 166.443 166.443 0 0 1 162.686 3.771 A 188.086 188.086 0 0 1 164.209 3.765 A 138.76 138.76 0 0 1 170.508 3.912 A 80.705 80.705 0 0 1 176.855 4.449 A 99.157 99.157 0 0 1 176.988 5.559 Q 177.038 5.995 177.078 6.389 A 51.345 51.345 0 0 1 177.148 7.134 A 31.364 31.364 0 0 1 177.208 7.928 Q 177.246 8.55 177.246 9.038 Z M 179.395 73.492 A 9.82 9.82 0 0 0 179.587 72.75 Q 179.777 71.895 179.956 70.606 A 59.455 59.455 0 0 0 180.127 69.244 Q 180.469 66.265 180.664 63.238 A 192.206 192.206 0 0 0 180.933 59.576 A 241.308 241.308 0 0 0 181.152 55.621 A 89.782 89.782 0 0 0 181.293 54.009 Q 181.494 51.446 181.641 48.003 A 378.315 378.315 0 0 0 181.812 43.267 A 452.477 452.477 0 0 0 181.934 38.238 Q 182.031 33.062 182.031 27.74 A 522.144 522.144 0 0 0 182.007 22.6 A 418.401 418.401 0 0 0 181.934 17.828 Q 181.859 14.313 181.698 11.544 A 105.482 105.482 0 0 0 181.592 9.917 A 57.695 57.695 0 0 0 181.469 8.479 Q 181.256 6.322 180.957 5.425 A 24.915 24.915 0 0 1 182.294 4.702 Q 182.961 4.368 183.569 4.124 A 12.501 12.501 0 0 1 184.277 3.863 A 25.953 25.953 0 0 1 185.321 3.538 Q 186.145 3.301 186.816 3.179 Q 187.695 2.959 188.464 2.959 A 5.028 5.028 0 0 1 188.965 2.984 Q 189.746 3.081 190.527 3.277 Q 191.211 3.472 191.797 3.814 A 2.193 2.193 0 0 1 192.676 4.742 A 1623.441 1623.441 0 0 1 192.236 17.095 A 761.425 761.425 0 0 1 191.98 23.04 A 581.59 581.59 0 0 1 191.699 28.472 A 2136.182 2136.182 0 0 1 191.113 37.279 A 1882.138 1882.138 0 0 1 190.918 40.093 A 1851.598 1851.598 0 0 1 190.705 44.261 Q 190.619 45.903 190.538 47.388 A 983.744 983.744 0 0 1 190.381 50.201 Q 190.213 53.121 190.068 55.534 A 1367.701 1367.701 0 0 1 189.941 57.622 Q 189.746 60.796 189.648 63.287 A 125.852 125.852 0 0 0 189.551 68.218 A 390.969 390.969 0 0 1 191.432 67.831 Q 193.103 67.492 195.117 67.095 Q 198.126 66.502 201.901 65.867 A 351.438 351.438 0 0 1 202.441 65.777 A 42.817 42.817 0 0 1 204.42 65.525 Q 206.717 65.289 208.489 65.397 A 15.805 15.805 0 0 1 208.984 65.435 A 14.746 14.746 0 0 1 210.67 65.684 Q 212.158 65.998 213.184 66.607 A 5.942 5.942 0 0 1 214.328 67.477 A 4.442 4.442 0 0 1 215.332 68.951 A 6.652 6.652 0 0 1 215.803 70.912 Q 215.834 71.263 215.834 71.629 A 8.928 8.928 0 0 1 215.82 72.124 A 665.742 665.742 0 0 0 215.729 73.046 Q 215.641 73.94 215.578 74.6 A 172.941 172.941 0 0 0 215.527 75.152 Q 215.447 76.037 215.433 76.591 A 8.684 8.684 0 0 0 215.43 76.812 A 5.385 5.385 0 0 0 214.471 76.337 Q 213.998 76.155 213.434 76.019 A 11.924 11.924 0 0 0 212.5 75.835 Q 210.645 75.542 208.789 75.347 Q 207.357 75.217 205.838 75.217 A 37.013 37.013 0 0 0 204.297 75.249 Q 201.758 75.347 198.73 75.64 Q 196.191 75.835 192.773 76.226 A 74.365 74.365 0 0 0 187.539 77.021 A 86.068 86.068 0 0 0 185.645 77.398 A 135.84 135.84 0 0 0 184.381 76.519 Q 182.823 75.449 181.631 74.703 A 44.467 44.467 0 0 0 181.25 74.468 A 81.322 81.322 0 0 0 180.486 74.056 Q 180.184 73.896 179.911 73.755 A 41.873 41.873 0 0 0 179.395 73.492 Z M 74.219 47.32 A 29.514 29.514 0 0 0 76.798 46.416 Q 78.13 45.882 79.568 45.18 A 49.697 49.697 0 0 0 79.98 44.976 A 24.004 24.004 0 0 0 85.107 41.495 A 27.374 27.374 0 0 0 85.84 40.826 A 20.808 20.808 0 0 0 89.316 36.475 A 25.306 25.306 0 0 0 90.43 34.429 Q 92.175 30.847 92.279 25.884 A 30.299 30.299 0 0 0 92.285 25.249 A 19.886 19.886 0 0 0 92.051 22.118 Q 91.71 19.977 90.869 18.267 A 14.611 14.611 0 0 0 88.895 15.225 A 12.508 12.508 0 0 0 87.207 13.579 A 14.769 14.769 0 0 0 82.275 10.943 A 18.183 18.183 0 0 0 77.696 10.129 A 16.831 16.831 0 0 0 76.953 10.113 L 75.977 10.113 Q 75.488 10.113 75 10.21 A 66.771 66.771 0 0 0 74.75 14.254 A 82.412 82.412 0 0 0 74.707 16.949 A 153.05 153.05 0 0 1 74.693 18.924 Q 74.682 19.807 74.661 20.79 A 303.37 303.37 0 0 1 74.609 22.857 A 1781.933 1781.933 0 0 0 74.512 26.458 A 2210.85 2210.85 0 0 0 74.414 30.328 A 612.117 612.117 0 0 0 74.295 36.553 A 702.676 702.676 0 0 0 74.268 38.726 A 773.782 773.782 0 0 0 74.219 47.32 Z M 119.029 18.684 A 117.859 117.859 0 0 0 119.043 16.949 A 82.412 82.412 0 0 1 119.086 14.254 A 66.771 66.771 0 0 1 119.336 10.21 A 7.615 7.615 0 0 1 119.897 10.137 A 5.671 5.671 0 0 1 120.41 10.113 L 121.387 10.113 A 16.831 16.831 0 0 1 122.129 10.129 A 18.183 18.183 0 0 1 126.709 10.943 A 14.769 14.769 0 0 1 131.641 13.579 A 12.508 12.508 0 0 1 133.329 15.225 A 14.611 14.611 0 0 1 135.303 18.267 Q 136.143 19.977 136.485 22.118 A 19.886 19.886 0 0 1 136.719 25.249 Q 136.719 28.271 136.132 30.674 A 13.971 13.971 0 0 1 134.863 34.038 Q 133.008 37.456 130.273 39.507 A 17.618 17.618 0 0 1 124.365 42.437 Q 122.778 42.876 121.326 43.194 A 41.513 41.513 0 0 1 118.555 43.706 A 302.902 302.902 0 0 1 118.652 36.04 Q 118.75 32.183 118.799 28.667 Q 118.848 25.152 118.945 22.124 Q 119.006 20.232 119.029 18.684 Z M 35.938 42.828 L 35.645 41.363 A 986.943 986.943 0 0 1 35.046 37.627 A 1191.392 1191.392 0 0 1 34.424 33.648 A 2227.079 2227.079 0 0 0 33.154 25.542 A 2359.368 2359.368 0 0 0 32.532 21.636 A 2024.514 2024.514 0 0 0 31.934 17.925 A 446.216 446.216 0 0 1 31.522 15.339 Q 31.361 14.313 31.22 13.372 A 256.225 256.225 0 0 1 30.957 11.578 A 193.081 193.081 0 0 0 30.183 13.626 Q 29.504 15.453 28.711 17.681 Q 27.441 21.246 25.977 25.445 A 527.26 527.26 0 0 0 23.752 31.963 A 596.647 596.647 0 0 0 22.998 34.234 Q 21.484 38.824 20.02 43.316 A 63.954 63.954 0 0 1 23.535 43.023 A 620.918 620.918 0 0 1 25.342 42.925 A 726.849 726.849 0 0 1 27.246 42.828 Q 30.215 42.735 32.215 42.73 A 89.633 89.633 0 0 1 32.422 42.73 A 72.972 72.972 0 0 1 33.878 42.744 Q 34.593 42.758 35.219 42.787 A 36.168 36.168 0 0 1 35.938 42.828 Z" vector-effect="non-scaling-stroke"/></g></svg>