<svg width="226.1" height="30" viewBox="0 0 226.1 96" xmlns="http://www.w3.org/2000/svg"><g id="svgGroup" stroke-linecap="round" fill-rule="evenodd" font-size="9pt" stroke="#22c35e" stroke-width="0.25mm" fill="#22c35e" style="stroke:#22c35e;stroke-width:0.25mm;fill:#22c35e"><path d="M 64.8 71.5 L 56.1 75 L 48.3 55 L 15.9 55 L 8.1 74.8 L 0 71.5 L 27.4 4 L 37.8 4 L 64.8 71.5 Z M 84.7 96 L 75.7 96 L 75.7 35.3 A 11.015 11.015 0 0 0 75.573 33.564 Q 75.242 31.498 74.05 30.45 A 5.718 5.718 0 0 0 71.26 29.128 A 7.991 7.991 0 0 0 69.8 29 L 71.7 22 Q 77.562 22 80.622 24.964 A 10.15 10.15 0 0 1 83.2 29.3 Q 84.155 27.867 86.252 25.977 A 38.58 38.58 0 0 1 86.45 25.8 A 18.902 18.902 0 0 1 89.151 23.816 A 25.569 25.569 0 0 1 92.05 22.3 A 16.955 16.955 0 0 1 96.609 21.011 A 21.886 21.886 0 0 1 99.7 20.8 Q 105.7 20.8 110.95 23.95 A 22.329 22.329 0 0 1 118.128 30.917 A 27.464 27.464 0 0 1 119.4 33.05 Q 122.6 39 122.6 47.5 Q 122.6 55.8 119.4 62.05 A 27.846 27.846 0 0 1 115.466 67.882 A 23.029 23.029 0 0 1 111.05 71.75 Q 105.9 75.2 99.9 75.2 Q 95.3 75.2 91.3 73.35 A 30.352 30.352 0 0 1 87.884 71.511 Q 86.091 70.384 84.7 69.1 L 84.7 96 Z M 199.5 57.7 L 199.5 0 L 208.5 0 L 208.5 56.8 A 20.644 20.644 0 0 0 208.688 59.688 Q 209.15 62.952 210.75 64.8 A 7.363 7.363 0 0 0 215.334 67.276 A 10.724 10.724 0 0 0 217 67.4 Q 218.9 67.4 220.75 66.95 A 22.192 22.192 0 0 0 222.213 66.544 Q 223.148 66.247 223.9 65.9 L 226.1 73.2 Q 224.701 73.822 222.788 74.323 A 34.978 34.978 0 0 1 221.65 74.6 A 23.816 23.816 0 0 1 218.495 75.085 A 30.514 30.514 0 0 1 215.8 75.2 A 20.862 20.862 0 0 1 210.91 74.646 A 17.544 17.544 0 0 1 207.5 73.45 A 12.683 12.683 0 0 1 202.175 68.685 A 15.856 15.856 0 0 1 201.65 67.8 Q 199.916 64.654 199.58 60.012 A 32.105 32.105 0 0 1 199.5 57.7 Z M 144.1 74 L 135.1 74 L 135.1 22 L 143.8 22 L 143.8 33.3 Q 145.1 30 147.3 27.15 Q 149.5 24.3 152.8 22.55 A 14.817 14.817 0 0 1 157.48 21.026 A 19.459 19.459 0 0 1 160.5 20.8 Q 162 20.8 163.5 20.95 A 18.972 18.972 0 0 1 164.555 21.084 Q 165.055 21.162 165.482 21.262 A 8.817 8.817 0 0 1 166 21.4 L 163.3 30.7 A 9.763 9.763 0 0 0 161.155 30.088 Q 160.059 29.9 158.8 29.9 A 12.958 12.958 0 0 0 152.17 31.746 A 15.609 15.609 0 0 0 151.75 32 Q 148.422 34.086 146.278 38.442 A 22.927 22.927 0 0 0 146.25 38.5 Q 144.487 42.107 144.17 47.328 A 39.09 39.09 0 0 0 144.1 49.7 L 144.1 74 Z M 184 74 L 175 74 L 175 22 L 184 22 L 184 74 Z M 84.7 35.4 L 84.7 61 Q 87.3 63.7 90.7 65.45 Q 94.1 67.2 98.1 67.2 Q 104.794 67.2 109.017 62.016 A 17.38 17.38 0 0 0 109.15 61.85 A 18.792 18.792 0 0 0 112.644 54.544 Q 113.305 51.855 113.388 48.708 A 34.555 34.555 0 0 0 113.4 47.8 Q 113.4 41.8 111.25 37.5 Q 109.1 33.2 105.55 30.9 Q 102 28.6 97.7 28.6 A 14.741 14.741 0 0 0 92.073 29.663 A 14.054 14.054 0 0 0 89.95 30.75 Q 86.5 32.9 84.7 35.4 Z M 32.1 13.4 L 18.9 47 L 45.2 47 L 32.1 13.4 Z M 175.137 11.288 A 5.973 5.973 0 0 0 179.5 13.1 A 8.175 8.175 0 0 0 180.996 12.969 A 5.647 5.647 0 0 0 184.1 11.35 Q 185.8 9.6 185.8 6.8 A 7.26 7.26 0 0 0 185.8 6.719 A 6.06 6.06 0 0 0 183.95 2.35 A 7.395 7.395 0 0 0 183.892 2.293 A 6.059 6.059 0 0 0 179.5 0.5 A 8.264 8.264 0 0 0 177.844 0.658 A 5.661 5.661 0 0 0 174.9 2.2 A 5.588 5.588 0 0 0 173.429 4.832 A 7.987 7.987 0 0 0 173.2 6.8 A 5.992 5.992 0 0 0 173.692 9.219 A 6.643 6.643 0 0 0 175.05 11.2 A 7.466 7.466 0 0 0 175.137 11.288 Z" vector-effect="non-scaling-stroke"/></g></svg>